<svg width="118" height="119" viewBox="0 0 118 119" fill="none" xmlns="http://www.w3.org/2000/svg">
<path fill-rule="evenodd" clip-rule="evenodd" d="M48.7701 0.0898438L2.01008 47.2898C-1.78992 51.1198 0.920081 57.6398 6.32008 57.6398H60.6401L60.7101 112.14C60.7201 117.42 67.1201 120.04 70.8301 116.28L117.12 69.1398V6.80984C117.12 6.80984 117.4 3.48985 115.98 1.82985C114.53 0.129849 110.49 0.0898438 110.49 0.0898438H48.7701Z" fill="#E9B418"/>
<path fill-rule="evenodd" clip-rule="evenodd" d="M115.98 1.83985C115.96 1.81985 60.5601 57.6399 60.5601 57.6399H60.66L60.73 112.14C60.74 117.42 67.14 120.04 70.85 116.28L117.13 69.1498V6.81985C117.12 6.81985 117.4 3.50985 115.98 1.83985Z" fill="#FA7A3B"/>
</svg>
